<?xml version="1.0" encoding="utf-8"?>
<!-- Svg Vector Icons : http://www.onlinewebfonts.com/icon -->
<!DOCTYPE svg PUBLIC "-//W3C//DTD SVG 1.1//EN" "http://www.w3.org/Graphics/SVG/1.1/DTD/svg11.dtd">
<svg version="1.1" xmlns="http://www.w3.org/2000/svg" xmlns:xlink="http://www.w3.org/1999/xlink" x="0px" y="0px" viewBox="0 0 1000 1000" enable-background="new 0 0 1000 1000" xml:space="preserve">
<metadata> Svg Vector Icons : http://www.onlinewebfonts.com/icon </metadata>
<g><g transform="translate(0.000000,511.000000) scale(0.100000,-0.100000)"><path d="M3730.2,4955c-107.6-71.8-138.7-172.2-138.7-459.3c-2.4-279.9,21.5-389.9,107.7-468.9c55-52.6,83.7-57.4,334.9-64.6l272.7-9.6v-904.2v-906.6l-100.5-26.3c-452.1-114.8-894.7-315.8-1239.1-562.1C2522.2,1237.6,2079.7,709,1842.8,213.8c-378-789.4-440.2-1760.6-169.8-2588.3c370.8-1131.5,1310.9-2014.2,2456.7-2306c1686.5-428.2,3416,430.6,4095.3,2035.7c179.4,418.6,267.9,866,267.9,1339.6c0,971.2-351.6,1818-1040.6,2499.8c-454.5,452.1-995.1,751.1-1655.4,921l-102.9,26.3v906.6v904.2l272.7,9.6c251.2,7.2,279.9,12,334.9,64.6c88.5,83.7,117.2,215.3,105.2,516.7c-4.8,205.7-16.7,279.9-50.2,332.5c-88.5,131.6-102.9,134-1375.5,134H3811.6L3730.2,4955z M6053,4483.7v-167.4h-346.9h-346.9V3077.2V1838l186.6-31.1c100.5-16.7,296.6-67,435.4-112.4C7275.4,1266.3,8136.5,84.6,8141.3-1269.3c0-394.7-43-679.4-165-1040.6c-349.3-1043-1243.9-1830-2353.9-2071.6c-284.7-62.2-956.9-62.2-1239.1-2.4C3110.7-4104,2165.8-3156.7,1909.8-1891.3c-69.4,339.7-69.4,866,2.4,1200.9C2077.3,101.3,2486.3,752,3110.7,1220.9c370.8,279.9,911.4,514.3,1346.8,586.1l184.2,31.1v1239.1v1239.1h-346.9h-346.9v167.4v167.5h1052.5H6053V4483.7z"/><path d="M6220.4,194.6c-71.8-31.1-303.8-167.4-511.9-303.8C5498-245.5,5275.5-374.7,5211-401c-227.3-86.1-409-50.2-1083.6,208.1c-511.9,198.6-686.5,198.6-1452,16.8L2405-240.7l-64.6-193.8c-181.8-543-181.8-1181.7,4.8-1736.7c141.1-418.6,334.9-734.4,653-1064.5c593.3-612.4,1370.7-904.2,2243.8-839.6c1255.8,93.3,2315.6,1078.8,2521.3,2339.5c67,423.4,31.1,904.2-100.5,1296.5l-67,198.5l-311,160.3C6677.3,235.3,6452.5,292.7,6220.4,194.6z M6012.3-1549.2c129.2-174.6-133.9-366-267.9-196.2c-64.6,81.3-62.2,129.2,0,210.5C5811.4-1448.7,5943-1455.9,6012.3-1549.2z M4256.5-2061.1c28.7-35.9,50.2-81.3,50.2-105.3c0-81.3-93.3-167.5-179.4-167.5c-86.1,0-179.4,86.1-179.4,167.5c0,81.3,93.3,167.4,179.4,167.4C4184.7-1998.9,4220.6-2015.7,4256.5-2061.1z M5167.9-2742.9c112.4-62.2,174.6-169.8,174.6-294.3c0-203.3-141.1-349.2-342.1-349.2c-148.3,0-253.6,69.4-313.4,205.7c-76.5,169.8-19.1,342.1,143.5,437.8C4940.7-2680.7,5053.1-2678.3,5167.9-2742.9z"/></g></g>
</svg>