<?xml version="1.0" encoding="utf-8"?>
<!-- Svg Vector Icons : http://www.onlinewebfonts.com/icon -->
<!DOCTYPE svg PUBLIC "-//W3C//DTD SVG 1.1//EN" "http://www.w3.org/Graphics/SVG/1.1/DTD/svg11.dtd">
<svg version="1.1" xmlns="http://www.w3.org/2000/svg" xmlns:xlink="http://www.w3.org/1999/xlink" x="0px" y="0px" viewBox="0 0 1000 1000" enable-background="new 0 0 1000 1000" xml:space="preserve">
<metadata> Svg Vector Icons : http://www.onlinewebfonts.com/icon </metadata>
<g><g transform="translate(0.000000,511.000000) scale(0.100000,-0.100000)"><path d="M2680.4,2323.1C1331.1,1156.9,208.3,189.8,186.7,176C103.9,120.8,98,63.7,103.9-478l5.9-516.1l55.2-53.2c53.2-53.2,57.1-55.1,256.1-49.2c246.2,7.9,378.2-33.5,490.5-147.7c173.3-177.3,147.7-394-65-585c-116.2-104.4-271.8-167.4-449.1-181.2c-70.9-5.9-155.6-19.7-185.2-31.5C100-2085.3,100-2085.3,100-3133.3v-957.4l67-66.9c37.4-37.4,86.7-67,108.3-67c23.6,0,1648.7,181.2,3612.6,403.8c1961.9,220.6,3973.1,447.1,4465.5,502.3c539.7,61.1,921.9,112.3,961.3,128c74.8,33.5,116.2,116.2,238.4,468.8c145.8,421.5,260,935.6,321.1,1432.1c35.4,279.7,33.5,1262.6,0,1546.3c-76.8,628.4-258,1357.2-445.2,1800.4c-122.1,287.6-388,654-711.1,977C7863,3895,6702.8,4389.4,5438.2,4434.7l-305.3,9.8L2680.4,2323.1z M9105.9,1773.5c110.3-281.7,260-884.4,321.1-1286.3c72.9-494.4,94.6-1211.4,49.2-1658.6c-49.2-474.7-163.5-1008.6-309.3-1428.1c-72.9-210.8-76.8-216.7-143.8-232.5c-63-13.8-8426.8-959.3-8483.9-959.3c-19.7,0-25.6,151.7-25.6,689.4v689.4l53.2,11.8c262,57.1,466.8,171.4,630.3,348.6c303.3,334.9,303.3,805.7-2,1093.2c-167.4,159.6-334.9,236.4-589,269.9l-92.6,11.8V-411c0,145.8,2,264,5.9,264c2,2,829.3,198.9,1835.9,439.3C3364,534.5,4189.3,731.5,4191.3,729.5c2,0-9.8-45.3-25.6-98.5c-21.7-68.9-27.6-147.7-21.7-262c17.7-301.4,187.1-553.5,462.9-685.5c159.6-76.8,435.3-90.6,598.8-27.6c340.8,128,533.8,397.9,535.8,748.5c2,210.8-39.4,334.9-167.4,504.3c-61.1,80.8-86.7,130-70.9,135.9c11.8,3.9,701.3,167.4,1530.5,364.4c829.3,197,1605.4,384.1,1723.6,413.7C9044.8,1897.6,9058.6,1895.6,9105.9,1773.5z"/><path d="M7567.5,688.1c-321.1-86.7-541.7-330.9-596.8-667.7c-15.8-92.6-15.8-157.6,2-238.4c114.2-577.2,722.9-852.9,1217.3-555.5c137.9,82.7,230.5,187.1,309.3,350.6c57.1,118.2,61.1,143.8,61.1,334.9c0,195-3.9,216.7-63,336.8C8322,605.4,7935.9,786.6,7567.5,688.1z"/><path d="M3285.2-405.1c-423.5-98.5-486.5-673.7-92.6-851c169.4-74.8,394-33.5,516.1,96.5c206.8,222.6,132,612.6-141.8,722.9C3468.4-395.3,3369.9-385.4,3285.2-405.1z"/><path d="M3771.7-1720.9c-200.9-51.2-380.2-198.9-472.8-386.1c-51.2-106.4-57.1-137.9-57.1-305.3c0-163.5,5.9-200.9,55.1-297.5c137.9-281.7,482.6-457,768.2-393.9c380.2,86.6,612.6,415.6,563.4,803.7c-41.4,319.1-319.1,569.3-650,587C3897.8-1709.1,3805.2-1711.1,3771.7-1720.9z"/><path d="M6594.4-1730.8c-208.8-78.8-336.9-260-334.9-482.6c2-134,37.4-224.6,126.1-327c128-143.8,340.8-202.9,533.8-143.8c88.6,25.6,240.3,151.7,281.7,232.5c169.4,327-45.3,717-407.8,740.6C6716.6-1705.2,6641.7-1713,6594.4-1730.8z"/><path d="M1557.7-2367c-149.7-78.8-222.6-189.1-232.4-348.6c-9.8-151.7,17.7-248.2,100.5-338.8c273.8-313.2,787.9-124.1,787.9,289.6C2213.6-2420.2,1863-2207.5,1557.7-2367z"/></g></g>
</svg>