<?xml version="1.0" encoding="utf-8"?>
<!-- Svg Vector Icons : http://www.onlinewebfonts.com/icon -->
<!DOCTYPE svg PUBLIC "-//W3C//DTD SVG 1.1//EN" "http://www.w3.org/Graphics/SVG/1.1/DTD/svg11.dtd">
<svg version="1.1" xmlns="http://www.w3.org/2000/svg" xmlns:xlink="http://www.w3.org/1999/xlink" x="0px" y="0px" viewBox="0 0 1000 1000" enable-background="new 0 0 1000 1000" xml:space="preserve">
<metadata> Svg Vector Icons : http://www.onlinewebfonts.com/icon </metadata>
<g><path d="M864.6,827.2c4-4.5,8-9,11.8-13.7c2.1-2.5,4-5,6.1-7.6c2.2-2.8,4.5-5.6,6.6-8.4c2.1-2.7,4.1-5.5,6.3-8.3c2.1-2.9,4.3-5.9,6.3-8.9c3-4.3,5.9-8.6,8.9-13c2.1-3.3,4.3-6.5,6.3-9.8c1.9-3,3.7-6.1,5.5-9.1c1.7-2.9,3.4-5.8,5-8.7c1.7-3,3.5-6.2,5.2-9.2c2.8-5.3,5.5-10.5,8.1-15.8l0,0c31.7-64.9,49.5-137.7,49.5-214.7c0-270.6-219.3-490-490-490c-270.7,0-490,219.3-490,490c0,79.5,19.1,154.4,52.6,220.8c0.9,1.7,1.7,3.4,2.6,5.2c2.1,4.1,4.4,8.3,6.6,12.3c0.6,0.9,1,1.8,1.6,2.7c4.6,8.1,9.4,16,14.5,23.9c0.9,1.3,1.8,2.8,2.7,4.1c2.5,3.8,5,7.5,7.6,11.2c1.1,1.7,2.4,3.4,3.6,5c8.4,11.7,17.1,22.9,26.6,33.7c1.6,1.8,3.1,3.6,4.7,5.4c2.8,3.1,5.5,6.2,8.4,9.3c1.7,1.9,3.5,3.7,5.3,5.5c4.8,5,9.8,10,14.8,14.8c2,2,4,3.9,6.2,5.8c2.8,2.6,5.6,5.2,8.5,7.6c2.4,2,4.6,4,6.9,6.1c2.8,2.4,5.6,4.7,8.4,7.1c3.3,2.6,6.5,5.2,9.8,7.6c3.9,3,7.8,5.9,11.8,8.9c3.1,2.2,6.2,4.5,9.4,6.6c2.7,1.9,5.4,3.7,8.2,5.5c3.3,2.1,6.6,4.3,10,6.4c2.5,1.6,4.9,3.1,7.4,4.6c5.5,3.2,11,6.4,16.5,9.5c2.4,1.3,4.7,2.6,7.2,3.8c3.9,2,7.8,4.1,11.9,6.1c2.5,1.2,4.9,2.5,7.5,3.6c4.9,2.4,9.9,4.6,14.8,6.7c1.7,0.8,3.4,1.5,5.2,2.2c5.9,2.5,12,4.8,18,7.2c2.2,0.9,4.6,1.7,6.8,2.5c4.7,1.7,9.5,3.2,14.3,4.8c2.1,0.7,4.3,1.3,6.4,2c6.6,2,13.3,3.9,20.2,5.7c1.5,0.3,2.9,0.7,4.4,1c5.6,1.5,11.3,2.7,17,3.9c2.2,0.4,4.5,0.9,6.7,1.3c5.7,1.1,11.4,2.1,17.3,3c1.6,0.2,3,0.6,4.6,0.8c7.2,1.1,14.3,2,21.6,2.8c1.9,0.2,3.8,0.3,5.7,0.6c5.7,0.6,11.4,1,17.1,1.3c2.1,0.1,4.3,0.2,6.5,0.3c7.5,0.3,14.9,0.6,22.5,0.6l0,0l0,0c7.5,0,15-0.2,22.4-0.6c2.1-0.1,4.3-0.2,6.4-0.3c5.9-0.3,11.8-0.8,17.6-1.3c1.7-0.1,3.5-0.3,5.2-0.4c7.3-0.8,14.5-1.7,21.6-2.8c1.7-0.2,3.4-0.6,5-0.8c5.7-0.9,11.3-1.9,16.9-3c2.1-0.4,4.1-0.8,6.3-1.2c6.7-1.5,13.3-2.9,20-4.6c0.4-0.1,0.9-0.2,1.3-0.3c6.8-1.8,13.6-3.7,20.3-5.7c2.1-0.7,4.3-1.3,6.4-2c5-1.7,10.1-3.4,15.1-5.2c1.9-0.7,3.7-1.3,5.6-2c6.4-2.4,12.8-4.9,19.1-7.5c1.9-0.8,3.7-1.6,5.5-2.5c4.7-2,9.3-4.1,14-6.3c2.2-1,4.5-2.1,6.6-3.1c5.2-2.6,10.2-5.2,15.2-7.8c1.7-0.9,3.4-1.8,5-2.7c5.3-2.9,10.5-5.9,15.7-9c2.2-1.3,4.5-2.8,6.7-4.1c3.8-2.4,7.6-4.8,11.4-7.4c2.1-1.5,4.3-2.8,6.4-4.3c5.3-3.6,10.4-7.3,15.6-11.1c2.1-1.6,4.1-3.2,6.3-4.8c3.4-2.6,6.7-5.3,10.1-8c2.4-1.9,4.6-3.8,6.9-5.7c3.5-2.9,6.8-5.8,10.2-8.9c2.9-2.6,5.7-5.2,8.5-7.7c3.5-3.3,6.8-6.4,10.2-9.8c2.2-2.2,4.5-4.5,6.7-6.8c2.6-2.7,5.2-5.4,7.7-8.1C860.2,831.9,862.5,829.6,864.6,827.2z M499.9,16.2c266.7,0,483.8,217.1,483.8,483.8c0,76.1-17.7,148.2-49.2,212.3c-7.8-3.3-15.9-6.7-24.3-10.2c-98-30.7-104.1,57.7-232.8,24.5c-118.9-30.7-133.3-18.8-173.6-5.2c-1.6-36.8,2.1-106.7,64.9-188.7C650,426.3,695.9,402.3,703.8,396.7C695,403.1,639,428.7,570,505.9c-21,22.1-38.2,47.4-52.3,73.2c-10.6,7.3-51.8-137.9,69.5-192.3c46.5-25.8,97.3-6.3,138.6-67.7c3.9-8.1,6.5-14.9,8.3-20.8c-0.4,35.3-4.4,117.3-38.7,206.6c-10.6,27.6-29.6,53.2-58.1,71.7c-43.9,28.4-100.5,14.2-105.1,20.7c11.5,33.8,118.2,63.8,168-54.4c34.1-80.8,44-196.9,36-252.5c3.8-18.2-2.5-22.6-2.2-22.8c-1.1,0.6,6.2,16.8-18.7,50c-36.5,42.8-81.1,18-137.1,38.4c-34.6,9.4-68.9,34.3-92,67.4c-1.6-8-3.6-16.1-6.4-24.5c-27.2-84.4-92.5-170.9-132.3-201c-8.4-15-15.2-13.1-15.6-13.2c-0.2,1.3,14.6,6.1,18.5,50.1c2,61.2-43,84.5-67.9,148.2c-28.5,61.3-30.9,149.8,6.9,200.2c39,48.9,70.6,45.6,78.9,47.2c12.3-2,19.6-6.1,23.6-12.4c18,52.7,43.4,95.2,61,116.1c-41.9,6.4-108,8.9-225.9-1.3c-97.1-8.3-88-52.2-164.9-26.4c-29.6-62.5-46.2-132.4-46.2-206C16.1,233.2,233.1,16.2,499.9,16.2z M385.8,509.5c-11.5-143.8,4.3-200.8,6.1-211.6c-1.9,12.1-23.5,79.2-21.9,192.4c-0.3,33.2,4.7,65.8,12.6,96c-0.9-0.1-1.7-0.3-2.1-0.9c0.9,16.8-120.7-43.2-72.7-190.1c15.1-58.8,61.2-91,50.8-169.1c-2.5-8.9-4.9-15.8-7.3-21.3c21.6,24,69.7,82.4,102,172.6c10,27.9,13.2,62.1,5.5,99.9c-11.8,58.2-58.4,99.4-57.5,107.7c13.3,5.7,40-7.6,60.6-36c5.8,29.3,17.5,43.1,20.5,48.8c7.7,7.8,14,11.8,19.6,12.7c-15.7,35.2-25.6,69-30.4,94.6C454.3,689,396.6,644.1,385.8,509.5z"/><path d="M734,267.5c0.1,0,0.2,0,0.3,0.1C734.1,267.5,734.1,267.4,734,267.5z"/><path d="M705,395.2c0.1,0.3-0.2,0.8-1.1,1.3C704.9,395.9,705.3,395.5,705,395.2z"/><path d="M703.9,396.6L703.9,396.6L703.9,396.6z"/><path d="M332,184.6L332,184.6L332,184.6z"/><path d="M332,184.6C332,184.6,332,184.4,332,184.6C332,184.4,332,184.6,332,184.6z"/><path d="M332,184.4c0-0.1,0.1-0.1,0.2-0.2C332.1,184.3,332,184.4,332,184.4z"/><path d="M391.8,297.9C391.8,297.9,391.8,297.8,391.8,297.9C391.8,297.8,391.8,297.9,391.8,297.9z"/><path d="M391.7,295.9c0.3,0,0.3,0.7,0.1,1.9C392.1,296.4,392.1,295.7,391.7,295.9z"/></g>
</svg>