<?xml version="1.0" encoding="UTF-8" standalone="no"?> <svg xmlns="http://www.w3.org/2000/svg" viewBox="0 0 26.68 46.93"><defs><style>.cls-1{fill:none;}.cls-1,.cls-3{stroke:#333;stroke-linecap:round;stroke-linejoin:round;stroke-width:2px;}.cls-2,.cls-3{fill:#333;}</style></defs><title>Asset 15</title><g id="Layer_2" data-name="Layer 2"><g id="Layer_2-2" data-name="Layer 2"><path class="cls-1" d="M22.85,18.18c0,5.47-4.26,6.52-9.51,6.52s-9.51-1.05-9.51-6.52a9.77,9.77,0,0,1,9.51-10A9.77,9.77,0,0,1,22.85,18.18Z"/><path class="cls-1" d="M17.14,18.92c0,1.77-1.7,2.12-3.8,2.12s-3.81-.35-3.81-2.12,1.71-4.14,3.81-4.14S17.14,17.14,17.14,18.92Z"/><line class="cls-1" x1="9.87" y1="17.93" x2="15.87" y2="17.93"/><circle class="cls-2" cx="8.25" cy="14.92" r="0.96"/><circle class="cls-2" cx="18.43" cy="14.92" r="0.96"/><path class="cls-3" d="M11.89,8.21S8.35,5.8,9.4,3.14s4.67-3.41,5.24,1.11c0,0,2.55-1.16,2.09,1.09a6,6,0,0,1-2.18,2.87"/><path class="cls-1" d="M20.88,22.94c-1.74,1.39-4.47,1.76-7.54,1.76s-5.8-.37-7.54-1.76A10.61,10.61,0,0,0,1,31.65c0,6.09,5.52,11,12.34,11s12.34-4.94,12.34-11A10.63,10.63,0,0,0,20.88,22.94Z"/><path class="cls-1" d="M5.62,30.43a5.32,5.32,0,0,1-3.9,4.91"/><path class="cls-1" d="M21.06,30.43A5.32,5.32,0,0,0,25,35.34"/><line class="cls-1" x1="8.87" y1="38.93" x2="8.87" y2="45.93"/><line class="cls-1" x1="17.87" y1="38.93" x2="17.87" y2="45.93"/></g></g></svg>