<?xml version="1.0" encoding="utf-8"?>
<!-- Svg Vector Icons : http://www.onlinewebfonts.com/icon -->
<!DOCTYPE svg PUBLIC "-//W3C//DTD SVG 1.1//EN" "http://www.w3.org/Graphics/SVG/1.1/DTD/svg11.dtd">
<svg version="1.1" xmlns="http://www.w3.org/2000/svg" xmlns:xlink="http://www.w3.org/1999/xlink" x="0px" y="0px" viewBox="0 0 1000 1000" enable-background="new 0 0 1000 1000" xml:space="preserve">
<metadata> Svg Vector Icons : http://www.onlinewebfonts.com/icon </metadata>
<g><path d="M981,766.1c-13.1,14.4-79.3,34.7-79.3,34.7s12.8-67,25.9-81.4c13-14.4,35.6-15.6,50.4-2.7C992.7,729.5,994.1,751.7,981,766.1L981,766.1z M820,918.5c-12-15.3-20-83.2-20-83.2s64.5,24.7,76.4,40c12,15.3,9.1,37.4-6.4,49.3C854.3,936.5,832,933.9,820,918.5L820,918.5z M830.9,702.2c-18.6-6.3-28.5-26.3-22.1-44.5c6.5-18.3,59.7-62,59.7-62s14.3,66.7,7.8,84.9C869.9,698.9,849.6,708.6,830.9,702.2L830.9,702.2z M699.4,746.4L384.9,946c-37.8,24-87.7,12.7-111.6-25.3L22.5,522.9c-23.9-37.9-12.6-88.1,25.1-112l478.5-303.7l95.7-60.8c15.1-9.6,35.1-5.1,44.6,10.1l8.7,13.7c9.5,15.1,5.1,35.2-10.1,44.8l-27.4,17.3L681,201l27.4-17.4c15.1-9.6,35-5.1,44.6,10.1l8.6,13.7c9.6,15.2,5.1,35.2-10,44.8l-27.3,17.4l43.2,68.6l27.3-17.4c15.1-9.6,35.1-5.1,44.7,10.1l8.7,13.7c9.5,15.2,5.1,35.2-10,44.8l-27.4,17.4l43.2,68.6L699.4,746.4L699.4,746.4z M472.9,436.9c-24.1-96.8-161.3-59-140.3,36.1l0,0c-111.6-11.8-123,134-16.5,139.1c-35.9,97.8,95,148.3,130.1,50c83.2,57.8,170.7-51.1,96.9-108.4C625.3,500.2,563.7,379.3,472.9,436.9L472.9,436.9z M466.4,611.5c-33.4,21.2-78.9,9.2-101.7-26.8c-22.7-36.1-14-82.4,19.4-103.7c33.4-21.2,78.9-9.2,101.6,26.8C508.5,543.9,499.8,590.4,466.4,611.5L466.4,611.5z"/></g>
</svg>