<svg width="300" height="700" stroke-opacity="0.8" font-family="Segoe UI" font-size="13px" xmlns="http://www.w3.org/2000/svg"
  xmlns:xlink="http://www.w3.org/1999/xlink">
   <style>
    .small { font: italic 13px 'Segoe UI'; }
    .heavy { font: bold 15px 'Segoe UI'; }
    /* Note that the color of the text is set with the    *
     * fill property, the color property is for HTML only */
  </style>

<text x="10" y="20"  transform="translate(8,4)" class="heavy">Status (MIEK+CES+IP+TvW)</text>

<line x1="10" y1="40" x2="40" y2="40"  stroke="black" stroke-dasharray="3" /><text x="40" y="40" transform="translate(8,4)">Strategisch Plan</text>

<line x1="10" y1="60" x2="40" y2="60"  stroke="black" stroke-dasharray="5,3" /><text x="40" y="60" transform="translate(8,4)">Bestemmings Plan</text>
<line x1="10" y1="80" x2="40" y2="80"  stroke="black" stroke-dasharray="5,2,3,2"/><text x="40" y="80" transform="translate(8,4)">Ruimtelijk Vergund</text>
<line x1="10" y1="100" x2="40" y2="100"  stroke="black" stroke-dasharray="10, 2,3,2"/><text x="40" y="100" transform="translate(8,4)">Subsidie Beschikking</text>
<line x1="10" y1="120" x2="40" y2="120"  stroke="black" /><text x="40" y="120" transform="translate(8,4)">Geinstalleerd</text>


<text x="10" y="140" transform="translate(8,4)" class="heavy">Leidingen (MIEK+CES+IP+TvW)</text>

<line x1="10" y1="160" x2="40" y2="160"  stroke="red" /><text x="40" y="160" transform="translate(8,4)">Warmte</text>
<line x1="10" y1="180" x2="40" y2="180"   stroke="yellow" /><text x="40" y="180" transform="translate(8,4)">Elektriciteit</text>
<line x1="10" y1="200" x2="40" y2="200"  stroke="cyan" /><text x="40" y="200" transform="translate(8,4)">Waterstof</text>
<line x1="10" y1="220" x2="40" y2="220"  stroke="orange" /><text x="40" y="220" transform="translate(8,4)">Zuurstof</text>
<line x1="10" y1="240" x2="40" y2="240"  stroke="blue" /><text x="40" y="240" transform="translate(8,4)">Water</text>
<line x1="10" y1="260" x2="40" y2="260"  stroke="silver" /><text x="40" y="260" transform="translate(8,4)">Waterstof in bestaande Gas-leiding</text>
<line x1="10" y1="280" x2="40" y2="280"  stroke="lime" /><text x="40" y="280" transform="translate(8,4)">CO2</text>

<text x="10" y="300" transform="translate(8,4)" class="heavy">Conversie (CES+IP)</text>

<rect x="10" y="312" width="25" height="15" stroke="magenta" fill="magenta"><title>Elektrolysers, Industriele Warmtepompen, Elektrische Boilers en Ecovaten</title></rect><text x="40" y="320" transform="translate(8,4)">Hello E to X  (CES+ISPT)</text>
<rect x="10" y="332" width="25" height="15" stroke="magenta" fill="magenta"><title>Transformators , GasCompressie, Gasexpantie</title></rect><text x="40" y="340" transform="translate(8,4)">Hello X to X   ( CES+ISPT)</text>
<rect x="10" y="352" width="25" height="15" stroke="magenta" fill="magenta"><title>WarmteKrachtKoppeling , Fuell Cell etc</title></rect><text x="40" y="360" transform="translate(8,4)">Hello C to E and X (CES+ISPT)</text>



<text x="10" y="380" transform="translate(8,4)" class="heavy">Productie (RES)</text>

<rect x="10" y="392" width="25" height="15" stroke="lime" fill="lime"/><text x="40" y="400" transform="translate(8,4)">Hello WindTurbinePark</text><rect x="10" y="412" width="25" height="15" stroke="orange" fill="orange"/><text x="40" y="420" transform="translate(8,4)">Hello ZonneVeld</text><rect x="10" y="432" width="25" height="15" stroke="deepskyblue" fill="deepskyblue"/><text x="40" y="440" transform="translate(8,4)">Hello Wind+Zon</text>

<text x="10" y="460" transform="translate(8,4)" class="heavy">Consumptie</text>

<rect x="10" y="472" width="25" height="15" stroke="red" fill="red"/><text x="40" y="480" transform="translate(8,4)">Woonkernen met gasnet (TvW)</text>
<rect x="10" y="492" width="25" height="15" stroke="purple" fill="purple"/><text x="40" y="500" transform="translate(8,4)">Woonkernen met warmtenet(TvW)</text>
<rect x="10" y="512" width="25" height="15" stroke="purple" fill="purple"/><text x="40" y="520" transform="translate(8,4)">Woonkernen all-electric(TvW)</text>
<rect x="10" y="532" width="25" height="15" stroke="yellow" fill="yellow"/><text x="40" y="540" transform="translate(8,4)">Kassen</text>
<circle cx="22" cy="560" r="5" fill="red"/><text x="40" y="560" transform="translate(8,4)">Chemie (20 Mton)</text>
<circle cx="22" cy="580" r="5" fill="blue"/><text x="40" y="580" transform="translate(8,4)">Metaal (10 Mton)</text>
<circle cx="22" cy="600" r="5" fill="yellow"/><text x="40" y="600" transform="translate(8,4)">AVI (10 Mton)</text>
<circle cx="22" cy="620" r="5" fill="brown"/><text x="40" y="620" transform="translate(8,4)">Raffinage (10 Mton)</text>
<circle cx="22" cy="640" r="5" fill="green"/><text x="40" y="640" transform="translate(8,4)">Papier,Voeding,Overig (6 Mton)</text>
<circle cx="22" cy="660" r="5" fill="black"/><text x="40" y="660" transform="translate(8,4)">E-Centrales (? Mton)</text>

<text x="10" y="680" transform="translate(8,4)" class="heavy">Opslag >xMWh </text>

</svg>