<?xml version="1.0" encoding="utf-8"?>
<!-- Svg Vector Icons : http://www.onlinewebfonts.com/icon -->
<!DOCTYPE svg PUBLIC "-//W3C//DTD SVG 1.1//EN" "http://www.w3.org/Graphics/SVG/1.1/DTD/svg11.dtd">
<svg version="1.1" xmlns="http://www.w3.org/2000/svg" xmlns:xlink="http://www.w3.org/1999/xlink" x="0px" y="0px" viewBox="0 0 1000 1000" enable-background="new 0 0 1000 1000" xml:space="preserve">
<metadata> Svg Vector Icons : http://www.onlinewebfonts.com/icon </metadata>
<g><path d="M692.6,62.4c0-29-23.5-52.4-52.4-52.4H359.8c-28.9,0-52.4,23.4-52.4,52.4v91h385.1L692.6,62.4L692.6,62.4z M279.4,372.4c-25.3,49.6-47.5,110.2-47.5,186.1v317c0,63.2,51.3,114.5,114.5,114.5h307.2c63.2,0,114.4-51.2,114.5-114.4V558.4c0-75.9-22.2-136.4-47.5-186L279.4,372.4L279.4,372.4z M699.1,333.3c-26.8-45.9-51.2-81.2-51.2-110.7c0-10.6,0.8-20.8,1.9-30.1H350.2c1.1,9.3,1.9,19.5,1.9,30.1c0,29.5-24.4,64.8-51.2,110.7H699.1L699.1,333.3z"/></g>
</svg>