<?xml version="1.0" encoding="utf-8"?>
<!-- Svg Vector Icons : http://www.onlinewebfonts.com/icon -->
<!DOCTYPE svg PUBLIC "-//W3C//DTD SVG 1.1//EN" "http://www.w3.org/Graphics/SVG/1.1/DTD/svg11.dtd">
<svg version="1.1" xmlns="http://www.w3.org/2000/svg" xmlns:xlink="http://www.w3.org/1999/xlink" x="0px" y="0px" viewBox="0 0 1000 1000" enable-background="new 0 0 1000 1000" xml:space="preserve">
<metadata> Svg Vector Icons : http://www.onlinewebfonts.com/icon </metadata>
<g><g transform="translate(0.000000,512.000000) scale(0.100000,-0.100000)"><path d="M2736.1,5007.4c-17.2-7.7-191.5-120.7-386.9-252.8c-272-183.9-363.9-254.7-386.9-304.5c-36.4-76.6-24.9-155.1,40.2-252.8l46-70.9l-160.9-97.7c-137.9-84.3-166.6-111.1-208.8-197.3c-76.6-153.2-65.1-250.9,59.4-455.8l63.2-105.3l-84.3-42.1c-46-23-329.4-103.4-626.3-178.1c-298.8-74.7-576.5-143.6-614.8-155.1l-72.8-19.2v-151.3c0-84.3,5.7-153.2,11.5-153.2c24.9,0,1878.8-231.7,1915.2-239.4c26.8-5.7,78.5-72.8,151.3-195.4c204.9-344.7,233.7-383,340.9-434.7c111.1-55.5,195.3-63.2,291.1-23c61.3,26.8,1112.7,649.2,1570.4,932.7c250.9,153.2,304.5,226,306.4,400.3c0,86.2-13.4,128.3-74.7,237.5l-72.8,130.2l40.2,137.9c153.2,524.8,149.4,921.2-11.5,1183.6c-147.5,239.4-260.5,312.2-484.5,310.2c-113,0-170.4-11.5-268.1-53.6c-183.9-78.5-185.8-78.5-249-23c-74.7,61.3-193.4,93.8-287.3,78.5c-40.2-7.7-160.9-63.2-266.2-126.4c-105.3-61.3-201.1-113-210.7-113c-11.5,0-49.8,42.1-82.4,95.8C2939.1,4995.9,2833.8,5045.7,2736.1,5007.4z M4507.6,4678c26.8-21.1,76.6-88.1,111.1-147.5c51.7-90,63.2-134.1,70.9-256.6c7.7-139.8-21.1-415.6-51.7-499.9c-11.5-30.6-63.2,46-264.3,381.1c-139.8,231.7-254.7,432.8-258.5,446.2c-7.7,34.5,181.9,113,273.9,114.9C4431,4716.3,4478.9,4701,4507.6,4678z"/><path d="M501.1,2067.6c-46-141.7-72.8-191.5-245.1-444.3c-120.7-176.2-168.5-317.9-153.2-469.2C121.9,941.5,246.4,795.9,453.2,750c201.1-46,421.3,49.8,507.5,216.4c95.8,185.8,61.3,417.5-91.9,641.6c-187.7,271.9-214.5,319.8-258.5,457.7c-23,76.6-47.9,141.7-53.6,141.7S526,2144.2,501.1,2067.6z"/><path d="M5842.5,1939.3c-969.1-101.5-1827.1-578.4-2459.1-1365.5c-139.8-174.3-358.1-497.9-453.9-678c-49.8-91.9-51.7-93.8-201.1-128.3C2016-399.1,1385.9-747.7,882.2-1257.1c-497.9-501.8-769.9-1080.1-773.7-1639.4c-1.9-168.5,3.8-204.9,47.9-298.8c91.9-195.4,279.6-329.4,490.3-356.2l93.8-9.6l51.7-166.6c68.9-216.4,178.1-396.4,354.3-580.3c249-260.5,559.2-415.6,925-461.6c210.7-26.8,440.5-1.9,660.7,72.8c467.3,155.1,867.6,580.3,986.3,1049.5l21.1,90h1258.3h1256.3l53.6-168.5c28.7-91.9,88.1-227.9,132.1-300.7c103.4-174.3,369.6-440.5,542-542c279.6-162.8,635.8-239.4,944.2-201.1c365.8,46,643.5,183.8,905.9,444.3c193.4,193.4,302.6,367.7,375.4,597.5l51.7,166.6l93.8,9.6c210.7,26.8,398.4,160.9,490.3,356.2c47.9,103.4,49.8,122.6,55.5,499.9c7.7,463.5-23,1233.3-63.2,1614.5C9630.7,790.2,8790,1688.4,7028,1910.6C6742.6,1946.9,6068.5,1962.3,5842.5,1939.3z M6225.5,426.3V-493H5109c-1043.8,0-1120.4,1.9-1179.7,34.5c-120.7,65.1-166.6,218.3-109.2,356.2c70.9,170.4,381.1,543.9,643.5,773.7c329.4,291.1,645.4,455.8,1084,568.8c185.8,47.9,492.2,99.6,616.7,103.4l61.3,1.9V426.3z M7240.6,1278.6c601.4-132.1,1038-415.6,1239.1-804.4c113-218.3,181.9-461.6,185.8-655c1.9-141.7-1.9-160.9-46-206.8C8523.7-491.1,8514.2-493,7642.8-493h-804.4v921.2v921.2l101.5-13.4C6993.5,1328.3,7129.5,1303.4,7240.6,1278.6z M2466.1-2358.3c55.5-15.3,141.7-46,191.5-70.9c118.7-55.5,350.5-287.3,406-406c178.1-373.5,105.3-792.9-187.7-1074.4c-379.2-360-946.1-344.7-1300.4,36.4c-260.5,277.7-323.7,649.2-172.4,1005.5c72.8,166.6,289.2,383,455.8,455.8C2048.6-2331.5,2284.1-2310.5,2466.1-2358.3z M7981.7-2358.3c55.5-15.3,141.7-46,191.5-70.9c118.7-55.5,350.5-287.3,406-406c178.1-373.5,105.3-792.9-187.7-1074.4c-300.7-285.4-708.6-339-1078.2-141.7c-132.1,68.9-316,258.5-377.3,386.9c-122.6,252.8-128.3,536.2-17.2,796.7c72.8,166.6,289.2,383,455.8,455.8C7564.2-2331.5,7799.8-2310.5,7981.7-2358.3z"/></g></g>
</svg>