<?xml version="1.0" encoding="utf-8"?>
<!-- Svg Vector Icons : http://www.onlinewebfonts.com/icon -->
<!DOCTYPE svg PUBLIC "-//W3C//DTD SVG 1.1//EN" "http://www.w3.org/Graphics/SVG/1.1/DTD/svg11.dtd">
<svg version="1.1" xmlns="http://www.w3.org/2000/svg" xmlns:xlink="http://www.w3.org/1999/xlink" x="0px" y="0px" viewBox="0 0 1000 1000" enable-background="new 0 0 1000 1000" xml:space="preserve">
<metadata> Svg Vector Icons : http://www.onlinewebfonts.com/icon </metadata>
<g><path d="M510.5,30.8c97.3,0,194.5,1.4,291.6-0.6c55.2-1,94.2,23.9,125.2,66.1c30.7,41.9,47.3,89.6,56.2,140.3c9.9,56.4,5.7,113.2,4.9,169.9c-0.4,28.9-1.6,57.8-2.4,86.6c-1.6,56-2.6,112.2-4.7,168.2c-2.8,83.3-6.3,166.6-9.5,249.9c-0.4,9.3-5.7,15.6-14.2,14.8c-77.5-5.7-150.9,14-224.3,34.6c-35.4,9.9-71.6,13.3-108,4.9c-28.9-6.7-51.8-23.9-74-42.5c-19.2-16.2-38.4-33-59.5-46.7c-33.4-21.8-70.2-28.1-109.2-16.6c-4.7,1.4-9.5,2.2-14.2,3c-12.5,2.6-19.8-3.2-19.8-16.4c0-46.5,0-92.8,0-139.3c0-14.2,0-14.2-13.5-14.2c-44.3,0.2-88.6,0-132.7,0.8c-44.1,0.6-78.1-19.2-106-51.6c-35.4-41.1-55.6-90-69.4-142C14.9,453.9,9.4,406.5,10,358.8c1-79.3,14.8-155.9,52.2-226.9c15.2-28.5,33.8-54.6,59.5-74.6c25.7-20,54.2-28.7,87.4-27.5c47.3,1.8,95,0.6,142.4,0.8C404.6,30.8,457.6,30.8,510.5,30.8L510.5,30.8z M380.7,822.5c2.4-0.2,3.6-0.2,4.7-0.4c42.1-10.9,81.5-2.6,117.3,20c23.3,14.6,45.3,31.5,65.3,50.4c38.4,36,82.1,48.7,132.9,36.4c32.2-7.9,64.1-17.2,96.3-24.5c42.3-9.7,85.1-16.4,128.6-15.6c7.5,0.2,10.1-2.2,9.9-9.7c-0.2-10.5,1-21,1.4-31.3c1.4-45.1,2.8-90.4,4.2-135.5c2.4-73.2,5.1-146.2,7.3-219.4c1.2-38.8,1-77.7,2.6-116.5c1.6-43.7,2.6-87.2-4.4-130.4c-7.7-46.9-21.8-91.6-51.4-129.6c-21.2-27.7-47.7-48.1-84.3-48.1C635.9,67.8,460.8,68,285.5,68c-2.8,0-5.9,0.4-8.7,0.6c-0.4,1-1,1.8-1.4,2.8c6.1,5.5,12.7,10.5,18.2,16.6c30.5,34.4,49.3,75,63.1,118.5c19.6,61.3,23.5,124.4,23.3,188.3c-0.6,138.7-0.2,277.7-0.2,416.4C379.7,814.8,380.3,818.5,380.7,822.5z M42.8,360.4c-0.2,57.4,7.3,113.7,26.5,168c13.8,38.6,32,74.4,63.9,101.3c21.4,18,45.9,27.5,74.6,21.8c19.6-3.8,36-13.8,50.4-27.5c28.5-26.9,45.7-60.9,58-97.5c22.2-65.1,28.9-132.3,24.9-201c-2.8-44.9-10.1-89-24.9-131.4c-12.5-36.2-29.7-69.8-57.6-96.7c-38.8-37.4-86.6-39.2-127.2-4.4c-22.9,19.6-38.4,44.5-50.6,71.6C52.7,226.8,43,292.7,42.8,360.4z"/><path d="M351.8,532.5c0.2,2.2,0.4,4.4,0.4,6.9c0,31.1-0.2,62.5,0.2,93.6c0,8.1-1.8,10.5-8.3,10.3c-14.4-0.6-28.5-0.2-42.9-0.2c-2,0-4.2-0.4-8.3-0.6C320.9,611,337.6,573.2,351.8,532.5z"/><path d="M265.3,344.3c-0.8,26.3-4.7,49.3-15.4,70.4c-5.1,10.1-11.5,20.2-19.2,28.3c-20,21.2-45.7,20.8-66.3,0c-20.8-21.2-29.7-48.3-33-77c-3.6-32.8,0.4-64.9,17-94c5.9-10.3,14-20.4,23.1-28.1c16.8-14,37.4-12.9,54.2,1.2c23.7,20,32.6,47.5,37.4,76.8C264.2,330.3,264.6,338.6,265.3,344.3z M231.1,346.7c-0.8-0.2-1.4-0.2-2.2-0.4c0-5.5,0.4-11.1,0-16.6c-1.6-15.6-4.4-31.1-13.5-44.5c-10.3-15-24.3-15.4-34.8-0.4c-4,5.9-7.3,12.5-9.3,19.2c-6.9,23.5-8.3,47.7-2.8,71.6c2.6,11.3,6.5,22.6,12.5,32.6c9.1,14.8,24.1,14.4,34,0c3.4-5.1,6.7-10.7,8.1-16.6C226.2,376.8,228.4,361.7,231.1,346.7z"/><path d="M231.1,346.7c-2.6,15-4.9,30.1-8.3,44.9c-1.4,5.9-4.7,11.5-8.1,16.6c-9.9,14.4-24.9,15-34,0c-5.9-9.7-9.9-21.2-12.5-32.6c-5.5-23.9-4-48.1,2.8-71.6c2-6.7,5.3-13.5,9.3-19.2c10.5-15,24.5-14.6,34.8,0.4c9.1,13.3,11.9,28.7,13.5,44.5c0.6,5.5,0,11.1,0,16.6C229.7,346.5,230.3,346.5,231.1,346.7z"/></g>
</svg>