<?xml version="1.0" encoding="utf-8"?>
<!-- Svg Vector Icons : http://www.onlinewebfonts.com/icon -->
<!DOCTYPE svg PUBLIC "-//W3C//DTD SVG 1.1//EN" "http://www.w3.org/Graphics/SVG/1.1/DTD/svg11.dtd">
<svg version="1.1" xmlns="http://www.w3.org/2000/svg" xmlns:xlink="http://www.w3.org/1999/xlink" x="0px" y="0px" viewBox="0 0 1000 1000" enable-background="new 0 0 1000 1000" xml:space="preserve">
<metadata> Svg Vector Icons : http://www.onlinewebfonts.com/icon </metadata>
<g><path d="M262.3,467.6l-36.7,33.1c-34.1,30.7-29.3,71.7-13.1,102.1l148-140.5C332.5,445.1,294.6,438.5,262.3,467.6z"/><path d="M433.9,122.8h212.9c14.3,0,25.8-10.7,25.8-23.8V27.6c0-13.1-11.5-23.8-25.8-23.8H433.9c-14.2,0-25.8,10.6-25.8,23.8V99C408.1,112.2,419.7,122.8,433.9,122.8z"/><path d="M750.8,284.7v-25.1c0-41.6-33.7-75.4-75.4-75.4h-2.8v-38.1H408.1v38.1H292.3l-11.2,10.6c-43.8-31.4-114.2-55.4-161.7-12.6l-79.2,71.4c-50.2,45.2-29,123.4,0.2,169.7l-16.9,16v481.4c0,41.6,33.8,75.3,75.4,75.3h576.5c41.7,0,75.4-33.8,75.4-75.3V366.1c60.1-20.8,129.8-23.2,204.8,21.7l34.4-64.1C901.5,270.7,820.1,266.5,750.8,284.7z M85.9,380.1c-16.4-30.7-21.3-72.2,13.3-103.3l37.2-33.5c32.6-29.4,71-22.8,99.4-5.4L85.9,380.1z M594.5,462.2v352.5H184.6V444.5h353.7h56.2V462.2z"/><path d="M204.4,798.2h370.3V461H204.4V798.2z M299.9,654.1C306,584,403.4,494,403.4,494s-14.1,53.9,43.5,139.9c40.8,60.8,2.8,121.3-56,124.4C347.3,760.7,292.6,739.2,299.9,654.1z"/></g>
</svg>