<?xml version="1.0" encoding="utf-8"?>
<!-- Svg Vector Icons : http://www.onlinewebfonts.com/icon -->
<!DOCTYPE svg PUBLIC "-//W3C//DTD SVG 1.1//EN" "http://www.w3.org/Graphics/SVG/1.1/DTD/svg11.dtd">
<svg version="1.1" xmlns="http://www.w3.org/2000/svg" xmlns:xlink="http://www.w3.org/1999/xlink" x="0px" y="0px" viewBox="0 0 1000 1000" enable-background="new 0 0 1000 1000" xml:space="preserve">
<metadata> Svg Vector Icons : http://www.onlinewebfonts.com/icon </metadata>
<g><g><path d="M984.9,618.8c-22.3,27.3-56.1,43.5-91.8,43.2c0,0-228.5,0-228.5,0.1l0.1-67.7c0-10.5-5.3-12.4-11.7-4.1c-29.6,38.3-105,140.3-105,187.3c0,46.9,75.4,149,105,187.2c6.4,8.3,11.7,6.4,11.7-4.1l-0.1-67.4H781c28.1,0.2,55.4-14.2,70.5-40.2l134.7-233.4C991.4,610.6,991.5,610.7,984.9,618.8z"/><path d="M845.9,137.5l-58.4,33.9c0,0-29.2-51.1-40.9-71.3c-16.5-28.4-46.9-46.3-79.8-46.2c-32.9,0-63.4,18.1-79.5,46.7c-0.1,0.1-26.9,46.2-53.8,93.1l54.4,94.1l-59.1,33.1c-9.1,5.1-8.2,10.6,2.2,12c47.9,6.5,174.1,20.7,214.7-2.8c40.6-23.5,91.3-139.7,109.7-184.5C859.2,135.9,854.9,132.2,845.9,137.5z"/><path d="M790.2,367.1l-36,20.8c-45.4,26.2-60.9,84.2-34.7,129.5l69.3,120c54.1,0,107.5,0,107.6,0c33,0.2,63.7-17.4,80.2-45.8c16.4-28.5,16.3-63.9-0.4-92.3c0,0-25.6-44.4-56.4-97.6C893.5,356.4,835.5,340.9,790.2,367.1z"/><path d="M20.8,611l134.7,233.4c5.2,9.1,5.1,9.1,1.4-0.7c-12.4-32.9-9.6-70.3,8.5-101.2l114.3-197.9l58.6,34c9.1,5.3,13.4,1.6,9.4-8.1c-18.3-44.8-69.1-161.1-109.7-184.5c-40.7-23.4-166.8-9.2-214.7-2.7c-10.4,1.4-11.4,6.9-2.3,12.2L79.5,429L21.2,529.9C6.9,554.1,5.8,585,20.8,611z"/><path d="M238.8,664.5c-27,46.9-53.7,93.1-53.8,93.2c-16.7,28.3-16.9,63.7-0.4,92.2c16.5,28.5,47.2,46.1,80.1,45.9c0.1,0,51.3,0,112.7,0c52.4,0,94.9-42.5,94.9-94.8v-41.7c0-52.4-42.5-94.8-94.8-94.8C377.5,664.5,238.8,664.5,238.8,664.5z"/><path d="M379,30.1c-30,0-55.4,16.9-70,40.8c-13.4,21.8-46.4,78.9-74.6,128.1c-26,45.4-10.2,103.6,35.1,129.8l36.8,21.2c45.4,26.2,103.3,10.6,129.5-34.7c46.7-81,113.6-196.9,131-226.8c17.9-30.9,47.4-51.4,81.7-56.9c10.4-1.7,10.4-1.5-0.1-1.5C648.4,30.1,379,30.1,379,30.1z"/></g><g></g><g></g><g></g><g></g><g></g><g></g><g></g><g></g><g></g><g></g><g></g><g></g><g></g><g></g><g></g></g>
</svg>