<?xml version="1.0" encoding="utf-8"?>
<!-- Svg Vector Icons : http://www.onlinewebfonts.com/icon -->
<!DOCTYPE svg PUBLIC "-//W3C//DTD SVG 1.1//EN" "http://www.w3.org/Graphics/SVG/1.1/DTD/svg11.dtd">
<svg version="1.1" xmlns="http://www.w3.org/2000/svg" xmlns:xlink="http://www.w3.org/1999/xlink" x="0px" y="0px" viewBox="0 0 1000 1000" enable-background="new 0 0 1000 1000" xml:space="preserve">
<metadata> Svg Vector Icons : http://www.onlinewebfonts.com/icon </metadata>
<g><g id="XMLID_187_"><path id="XMLID_190_" d="M616.6,43.8c0-18.6-15.1-33.8-33.8-33.8H417.1c-18.6,0-33.8,15.1-33.8,33.8v48.1h233.2L616.6,43.8L616.6,43.8z"/><path id="XMLID_189_" d="M524,314l234.1,92.2v-66.6c0-39.7-32.2-71.8-71.8-71.8h-69.7V157.3H383.4v110.4h-69.7c-39.6,0-71.8,32.1-71.8,71.8v66.6L476,314C491.4,307.9,508.6,307.9,524,314z"/><path id="XMLID_188_" d="M860.3,516.7L532.7,387.8v279c0,18.1-14.6,32.7-32.7,32.7c-18.1,0-32.7-14.7-32.7-32.7v-279L139.7,516.7c-13.6,5.3-20.5,20.5-15.6,34.2l121.9,345.3c19.8,56.2,73,93.8,132.6,93.8h243c59.6,0,112.7-37.6,132.6-93.8l121.9-345.3C880.8,537.2,873.9,522,860.3,516.7z"/></g><g></g><g></g><g></g><g></g><g></g><g></g><g></g><g></g><g></g><g></g><g></g><g></g><g></g><g></g><g></g></g>
</svg>