<?xml version="1.0" encoding="utf-8"?>
<!-- Svg Vector Icons : http://www.onlinewebfonts.com/icon -->
<!DOCTYPE svg PUBLIC "-//W3C//DTD SVG 1.1//EN" "http://www.w3.org/Graphics/SVG/1.1/DTD/svg11.dtd">
<svg version="1.1" xmlns="http://www.w3.org/2000/svg" xmlns:xlink="http://www.w3.org/1999/xlink" x="0px" y="0px" viewBox="0 0 1000 1000" enable-background="new 0 0 1000 1000" xml:space="preserve">
<metadata> Svg Vector Icons : http://www.onlinewebfonts.com/icon </metadata>
<g><path d="M272.5,684.9c0-94.2,26.5-170.6,79.5-170.6l-192.7,0.2c53,0,81.1,76.1,81.1,170.3c0,94.1-27.9,170.5-80.8,170.9l192.1-0.3C298.9,855.2,272.5,779.1,272.5,684.9L272.5,684.9z M713,144.2H329.4c53,0,90.1,76.4,90.1,170.6c0,94.2-37.1,170.6-90.1,170.6c0,0,370.6,0.6,373.2,0.6c94.5,0,171.2-76.6,171.2-171.2C873.7,223.8,802.6,149.7,713,144.2L713,144.2z M829.3,514H470.8c53.1,0,88.2,76.5,88.2,170.6s-35.1,170.6-88.2,170.6c0,0,345.5,0.5,348,0.5c94.5,0,171.2-76.7,171.2-171.1C990.1,593.6,918.9,519.5,829.3,514L829.3,514z M273.3,486c-54.1,0-97.9-76.6-97.9-170.9c0-94.4,43.8-170.9,97.9-170.9c54.1,0,97.9,76.5,97.9,170.9C371.3,409.4,327.4,486,273.3,486z M413.1,855.8c-54.1,0-97.9-76.6-97.9-170.9c0-94.3,43.8-170.9,97.9-170.9c54.1,0,97.9,76.6,97.9,170.9C511.1,779.4,467.3,855.8,413.1,855.8L413.1,855.8z M107.9,855.8c-54.1,0-97.9-76.6-97.9-170.9C10,590.6,53.8,514,107.9,514s97.9,76.6,97.9,170.9C205.9,779.4,162,855.8,107.9,855.8L107.9,855.8z"/></g>
</svg>