<?xml version="1.0" encoding="UTF-8" standalone="no"?> <svg xmlns="http://www.w3.org/2000/svg" viewBox="0 0 64 64"><g id="Layer_18" data-name="Layer 18"><path d="M57.08,11.29c-.34-12.46-49.82-12.46-50.16,0V52.71c.34,12.46,49.82,12.46,50.16,0h0Zm-4,27.61c0,1.59-7.17,5.29-21.08,5.29s-21.08-3.7-21.08-5.29V30.44c9.74,5.28,32.42,5.28,42.16,0Zm0-13.8c0,1.58-7.17,5.29-21.08,5.29S10.92,26.68,10.92,25.1V16.64c9.74,5.28,32.42,5.28,42.16,0ZM32,6c13.91,0,21.08,3.71,21.08,5.29S45.91,16.58,32,16.58s-21.08-3.71-21.08-5.29S18.09,6,32,6Zm0,52c-13.91,0-21.08-3.71-21.08-5.29h0V44.25c9.74,5.28,32.42,5.28,42.16,0v8.46C53.08,54.29,45.91,58,32,58Z"/></g></svg>