<?xml version="1.0" encoding="UTF-8" standalone="no"?> <svg width="64" height="64" viewBox="0 0 64 64" fill="none" xmlns="http://www.w3.org/2000/svg">
<path d="M61 28H58.683C57.8505 22.28 55.1928 16.9818 51.1055 12.8945C47.0182 8.80722 41.72 6.14945 36 5.317V3C36 2.73478 35.8946 2.48043 35.7071 2.29289C35.5196 2.10536 35.2652 2 35 2H29C28.7348 2 28.4804 2.10536 28.2929 2.29289C28.1054 2.48043 28 2.73478 28 3V5.317C22.28 6.14945 16.9818 8.80722 12.8945 12.8945C8.80722 16.9818 6.14945 22.28 5.317 28H3C2.73478 28 2.48043 28.1054 2.29289 28.2929C2.10536 28.4804 2 28.7348 2 29V35C2 35.2652 2.10536 35.5196 2.29289 35.7071C2.48043 35.8946 2.73478 36 3 36H5.317C6.14945 41.72 8.80722 47.0182 12.8945 51.1055C16.9818 55.1928 22.28 57.8505 28 58.683V61C28 61.2652 28.1054 61.5196 28.2929 61.7071C28.4804 61.8946 28.7348 62 29 62H35C35.2652 62 35.5196 61.8946 35.7071 61.7071C35.8946 61.5196 36 61.2652 36 61V58.683C41.72 57.8505 47.0182 55.1928 51.1055 51.1055C55.1928 47.0182 57.8505 41.72 58.683 36H61C61.2652 36 61.5196 35.8946 61.7071 35.7071C61.8946 35.5196 62 35.2652 62 35V29C62 28.7348 61.8946 28.4804 61.7071 28.2929C61.5196 28.1054 61.2652 28 61 28ZM30 4H34V8H30V4ZM4 30H8V34H4V30ZM34 60H30V56H34V60ZM36 56.66V55C36 54.7348 35.8946 54.4804 35.7071 54.2929C35.5196 54.1054 35.2652 54 35 54H33V47.415L34.828 49.243L36.242 47.829L32 43.585L27.758 47.829L29.172 49.243L31 47.415V54H29C28.7348 54 28.4804 54.1054 28.2929 54.2929C28.1054 54.4804 28 54.7348 28 55V56.66C22.8148 55.8419 18.0221 53.4016 14.3102 49.6898C10.5984 45.9779 8.15815 41.1852 7.34 36H9C9.26522 36 9.51957 35.8946 9.70711 35.7071C9.89464 35.5196 10 35.2652 10 35V33H13.586L11.758 34.829L13.172 36.243L17.414 32L13.172 27.757L11.758 29.171L13.586 31H10V29C10 28.7348 9.89464 28.4804 9.70711 28.2929C9.51957 28.1054 9.26522 28 9 28H7.34C8.15815 22.8148 10.5984 18.0221 14.3102 14.3102C18.0221 10.5984 22.8148 8.15815 28 7.34V9C28 9.26522 28.1054 9.51957 28.2929 9.70711C28.4804 9.89464 28.7348 10 29 10H31V16.585L29.172 14.757L27.758 16.171L32 20.415L36.242 16.171L34.828 14.757L33 16.585V10H35C35.2652 10 35.5196 9.89464 35.7071 9.70711C35.8946 9.51957 36 9.26522 36 9V7.34C41.1852 8.15815 45.9779 10.5984 49.6898 14.3102C53.4016 18.0221 55.8419 22.8148 56.66 28H55C54.7348 28 54.4804 28.1054 54.2929 28.2929C54.1054 28.4804 54 28.7348 54 29V31H50.414L52.242 29.171L50.828 27.757L46.586 32L50.828 36.243L52.242 34.829L50.414 33H54V35C54 35.2652 54.1054 35.5196 54.2929 35.7071C54.4804 35.8946 54.7348 36 55 36H56.66C55.8419 41.1852 53.4016 45.9779 49.6898 49.6898C45.9779 53.4016 41.1852 55.8419 36 56.66V56.66ZM60 34H56V30H60V34Z" fill="black"/>
<path d="M39 28H38.929C38.714 26.5117 38.0253 25.1321 36.9651 24.0657C35.9048 22.9992 34.5293 22.3026 33.0423 22.0789C31.5552 21.8552 30.0356 22.1163 28.7085 22.8236C27.3814 23.5309 26.3174 24.6468 25.674 26.006C23.5792 26.0871 21.5999 26.9872 20.1619 28.5127C18.724 30.0381 17.9423 32.0671 17.985 34.1631C18.0277 36.259 18.8915 38.2544 20.3904 39.7201C21.8893 41.1857 23.9036 42.0044 26 42H39C40.8565 42 42.637 41.2625 43.9498 39.9498C45.2625 38.637 46 36.8565 46 35C46 33.1435 45.2625 31.363 43.9498 30.0503C42.637 28.7375 40.8565 28 39 28V28ZM39 40H26C24.4087 40 22.8826 39.3679 21.7574 38.2427C20.6321 37.1174 20 35.5913 20 34C20 32.4087 20.6321 30.8826 21.7574 29.7574C22.8826 28.6322 24.4087 28 26 28H26.08C26.1068 27.9996 26.1335 28.0013 26.16 28.005C26.3951 28.048 26.6378 28.0054 26.8442 27.8849C27.0505 27.7643 27.2069 27.5739 27.285 27.348C27.6795 26.2288 28.4593 25.2863 29.4849 24.6892C30.5105 24.0921 31.715 23.8792 32.8831 24.0887C34.0512 24.2981 35.1068 24.9162 35.861 25.8325C36.6152 26.7488 37.019 27.9034 37 29.09C37 29.237 37.0324 29.3822 37.0948 29.5153C37.1573 29.6484 37.2484 29.7661 37.3615 29.8599C37.4747 29.9538 37.6072 30.0216 37.7495 30.0584C37.8918 30.0952 38.0405 30.1002 38.185 30.073C38.4538 30.0232 38.7267 29.9987 39 30C40.3261 30 41.5979 30.5268 42.5355 31.4645C43.4732 32.4022 44 33.6739 44 35C44 36.3261 43.4732 37.5979 42.5355 38.5355C41.5979 39.4732 40.3261 40 39 40Z" fill="black"/>
</svg>
