<?xml version="1.0" encoding="UTF-8" standalone="no"?>
<!-- Created with Inkscape (http://www.inkscape.org/) -->

<svg
   xmlns:dc="http://purl.org/dc/elements/1.1/"
   xmlns:cc="http://creativecommons.org/ns#"
   xmlns:rdf="http://www.w3.org/1999/02/22-rdf-syntax-ns#"
   xmlns:svg="http://www.w3.org/2000/svg"
   xmlns="http://www.w3.org/2000/svg"
   xmlns:sodipodi="http://sodipodi.sourceforge.net/DTD/sodipodi-0.dtd"
   xmlns:inkscape="http://www.inkscape.org/namespaces/inkscape"
   version="1.1"
   id="svg66846"
   xml:space="preserve"
   width="800"
   height="800"
   viewBox="0 0 800 800"
   sodipodi:docname="logo-element-concept-34-publicdomainvectors.org.svg"
   inkscape:version="0.92.4 (5da689c313, 2019-01-14)"><metadata
     id="metadata66852"><rdf:RDF><cc:Work
         rdf:about=""><dc:format>image/svg+xml</dc:format><dc:type
           rdf:resource="http://purl.org/dc/dcmitype/StillImage" /><dc:title></dc:title></cc:Work></rdf:RDF></metadata><defs
     id="defs66850"><clipPath
       clipPathUnits="userSpaceOnUse"
       id="clipPath66862"><path
         d="M 0,600 H 600 V 0 H 0 Z"
         id="path66860"
         inkscape:connector-curvature="0" /></clipPath></defs><sodipodi:namedview
     pagecolor="#ffffff"
     bordercolor="#666666"
     borderopacity="1"
     objecttolerance="10"
     gridtolerance="10"
     guidetolerance="10"
     inkscape:pageopacity="0"
     inkscape:pageshadow="2"
     inkscape:window-width="797"
     inkscape:window-height="480"
     id="namedview66848"
     showgrid="false"
     inkscape:zoom="0.295"
     inkscape:cx="400"
     inkscape:cy="400"
     inkscape:window-x="0"
     inkscape:window-y="0"
     inkscape:window-maximized="0"
     inkscape:current-layer="g66854" /><g
     id="g66854"
     inkscape:groupmode="layer"
     inkscape:label="logo-element-concept-34-publicdomainvectors.org"
     transform="matrix(1.3333333,0,0,-1.3333333,0,800)"><g
       id="g66856"><g
         id="g66858"
         clip-path="url(#clipPath66862)"><path
           d="m 347.883,422.185 c -3.169,-12.372 -6.391,-24.744 -5.485,-36.801 21.282,6.864 43.947,-1.026 63.129,-15.891 0.081,-0.777 0.168,-1.56 0.246,-2.336 0.47,0.344 0.914,0.702 1.377,1.049 25.346,-20.371 44.23,-52.781 45.046,-78.708 11.829,-3.24 23.048,1.42 34.786,-0.676 -3.376,31.619 -15.839,74.08 -46.798,104.788 -0.793,0.786 -1.591,1.545 -2.394,2.291 18.541,20.292 32.2,42.931 43.204,66.846 -10.21,5.398 -20.134,11.407 -30.497,16.49 -11.009,-22.936 -24.93,-44.478 -43.768,-63.648 -19.537,7.629 -39.916,8.277 -58.846,6.596"
           style="fill:#231f20;fill-opacity:1;fill-rule:nonzero;stroke:none"
           id="path66864"
           inkscape:connector-curvature="0" /><path
           d="m 295.748,221.351 c 16.374,13.1 27.128,30.423 35.137,47.661 -9.132,8.928 -18.235,17.906 -29.13,23.151 -4.697,-21.864 -22.864,-37.549 -45.325,-46.728 -0.716,0.32 -1.438,0.633 -2.149,0.957 0.064,-0.581 0.152,-1.142 0.221,-1.721 -30.314,-11.764 -67.823,-11.911 -90.686,0.347 -8.717,-8.625 -10.295,-20.672 -17.977,-29.788 29.071,-12.89 72.074,-23.319 114.149,-11.867 1.075,0.293 2.131,0.604 3.179,0.925 8.305,-26.202 21.078,-49.349 36.289,-70.835 9.779,6.143 19.944,11.733 29.528,18.163 -14.359,21.004 -26.051,43.832 -33.236,69.735"
           style="fill:#231f20;fill-opacity:1;fill-rule:nonzero;stroke:none"
           id="path66866"
           inkscape:connector-curvature="0" /><path
           d="m 383.601,340.69 c -12.299,-3.442 -24.624,-6.838 -34.613,-13.651 16.584,-14.998 21.083,-38.572 17.802,-62.613 -0.636,-0.462 -1.268,-0.928 -1.903,-1.383 0.535,-0.236 1.069,-0.439 1.602,-0.668 -4.969,-32.136 -23.595,-64.695 -45.643,-78.365 3.109,-11.864 12.755,-19.252 16.806,-30.464 25.701,18.732 56.236,50.761 67.354,92.922 0.283,1.08 0.542,2.15 0.788,3.22 26.844,-5.91 53.277,-6.422 79.488,-3.994 -0.428,11.541 -0.189,23.14 -0.968,34.657 -25.37,-1.935 -50.982,-0.649 -77.004,6.081 -3.161,20.73 -12.787,38.707 -23.709,54.258"
           style="fill:#231f20;fill-opacity:1;fill-rule:nonzero;stroke:none"
           id="path66868"
           inkscape:connector-curvature="0" /><path
           d="m 242.448,278.826 c 3.169,12.37 6.392,24.745 5.484,36.8 -21.281,-6.864 -43.947,1.028 -63.128,15.892 -0.082,0.778 -0.171,1.56 -0.245,2.338 -0.473,-0.347 -0.914,-0.705 -1.381,-1.053 -25.345,20.372 -44.227,52.782 -45.043,78.711 -11.827,3.239 -23.049,-1.42 -34.785,0.675 3.371,-31.622 15.841,-74.081 46.798,-104.789 0.792,-0.785 1.59,-1.544 2.39,-2.293 -18.54,-20.292 -32.198,-42.928 -43.202,-66.841 10.212,-5.401 20.135,-11.408 30.497,-16.492 11.011,22.939 24.932,44.477 43.77,63.647 19.534,-7.627 39.915,-8.279 58.845,-6.595"
           style="fill:#231f20;fill-opacity:1;fill-rule:nonzero;stroke:none"
           id="path66870"
           inkscape:connector-curvature="0" /><path
           d="m 206.731,360.318 c 12.297,3.445 24.624,6.84 34.612,13.652 -16.586,14.998 -21.083,38.575 -17.8,62.618 0.632,0.46 1.265,0.926 1.899,1.381 -0.534,0.234 -1.067,0.437 -1.6,0.668 4.97,32.135 23.597,64.695 45.643,78.366 -3.109,11.863 -12.755,19.25 -16.806,30.461 -25.7,-18.732 -56.236,-50.76 -67.353,-92.922 -0.284,-1.078 -0.543,-2.15 -0.789,-3.216 -26.843,5.909 -53.276,6.419 -79.489,3.99 0.431,-11.54 0.19,-23.137 0.968,-34.653 25.367,1.931 50.984,0.645 77.005,-6.086 3.161,-20.729 12.786,-38.706 23.71,-54.259"
           style="fill:#231f20;fill-opacity:1;fill-rule:nonzero;stroke:none"
           id="path66872"
           inkscape:connector-curvature="0" /><path
           d="m 327.162,496.722 c -8.303,26.203 -21.076,49.352 -36.286,70.835 -9.781,-6.143 -19.944,-11.734 -29.527,-18.163 14.359,-21.005 26.05,-43.83 33.233,-69.733 -16.373,-13.102 -27.128,-30.425 -35.134,-47.66 9.13,-8.93 18.233,-17.908 29.129,-23.152 4.695,21.863 22.862,37.548 45.325,46.725 0.716,-0.318 1.437,-0.635 2.148,-0.954 -0.064,0.579 -0.153,1.142 -0.222,1.72 30.316,11.764 67.826,11.911 90.687,-0.346 8.717,8.624 10.297,20.671 17.978,29.786 -29.07,12.893 -72.074,23.323 -114.148,11.868 -1.077,-0.294 -2.133,-0.605 -3.183,-0.926"
           style="fill:#231f20;fill-opacity:1;fill-rule:nonzero;stroke:none"
           id="path66874"
           inkscape:connector-curvature="0" /></g></g></g></svg>