<?xml version="1.0" encoding="UTF-8" standalone="no"?> <svg xmlns="http://www.w3.org/2000/svg" viewBox="0 0 33.33 44.6"><defs><style>.cls-1{fill:none;stroke-linecap:round;stroke-linejoin:round;stroke-width:2px;}.cls-1,.cls-2{stroke:#333;}.cls-2,.cls-3{fill:#333;}.cls-2{stroke-miterlimit:10;}</style></defs><title>Asset 17</title><g id="Layer_2" data-name="Layer 2"><g id="Layer_2-2" data-name="Layer 2"><path class="cls-1" d="M29.55,14.84c0,7-5.77,8.29-12.88,8.29S3.78,21.79,3.78,14.84a12.89,12.89,0,0,1,25.77,0Z"/><path class="cls-1" d="M11.7,3.14S7.54-3.45,2,6.5c0,0-3.35,5.43,2.22,4.94"/><path class="cls-1" d="M21.63,3.14s4.16-6.59,9.7,3.36c0,0,3.35,5.43-2.22,4.94"/><path class="cls-1" d="M24.49,15.73c0,3-3.52,4.27-7.87,4.27s-7.87-1.23-7.87-4.27,3.53-6.12,7.87-6.12S24.49,12.69,24.49,15.73Z"/><ellipse class="cls-2" cx="13.4" cy="15.23" rx="0.76" ry="2.15"/><ellipse class="cls-2" cx="19.84" cy="15.23" rx="0.76" ry="2.15"/><circle class="cls-3" cx="10.49" cy="8.15" r="1.16"/><circle class="cls-3" cx="22.84" cy="8.15" r="1.16"/><ellipse class="cls-2" cx="19.84" cy="15.23" rx="0.76" ry="2.15"/><path class="cls-1" d="M6.08,36A15.63,15.63,0,0,1,1,24.44v-3.8a15.61,15.61,0,0,1,3.08-9.31"/><path class="cls-1" d="M24,38.27a15.52,15.52,0,0,1-7.33,1.83h0a15.53,15.53,0,0,1-7.34-1.83"/><path class="cls-1" d="M29.25,11.33a15.55,15.55,0,0,1,3.08,9.31v3.8A15.63,15.63,0,0,1,27.2,36"/><path class="cls-1" d="M9.24,32.6V42A1.62,1.62,0,0,1,7.62,43.6h0A1.62,1.62,0,0,1,6,42V31.6"/><path class="cls-1" d="M27.24,31.6V42a1.62,1.62,0,0,1-1.62,1.62h0A1.62,1.62,0,0,1,24,42V32.6"/></g></g></svg>