<?xml version="1.0" encoding="utf-8"?>
<!-- Svg Vector Icons : http://www.onlinewebfonts.com/icon -->
<!DOCTYPE svg PUBLIC "-//W3C//DTD SVG 1.1//EN" "http://www.w3.org/Graphics/SVG/1.1/DTD/svg11.dtd">
<svg version="1.1" xmlns="http://www.w3.org/2000/svg" xmlns:xlink="http://www.w3.org/1999/xlink" x="0px" y="0px" viewBox="0 0 1000 1000" enable-background="new 0 0 1000 1000" xml:space="preserve">
<metadata> Svg Vector Icons : http://www.onlinewebfonts.com/icon </metadata>
<g><g transform="translate(0.000000,511.000000) scale(0.100000,-0.100000)"><path d="M5911.9,4742.9c-873.6-92-1580.4-616.8-1892.7-1406.1c-132.2-335.2-155.2-457.8-155.2-852.5c-1.9-195.4,3.8-419.5,13.4-498.1l13.4-143.7l-76.6-51.7c-42.1-30.6-84.3-53.6-95.8-53.6c-28.7,0-245.2,183.9-436.8,371.6c-425.3,413.8-655.2,818-961.7,1687.7c-90,256.7-116.9,296.9-191.6,296.9c-114.9,0-490.4-465.5-649.4-806.5c-174.3-369.7-239.5-664.7-239.5-1061.3c1.9-467.4,114.9-839.1,371.6-1218.4c270.1-396.5,597.7-659,1101.5-885c116.9-51.7,216.5-103.4,224.1-116.8c7.7-11.5,15.3-61.3,15.3-109.2c0-88.1,0-90-97.7-132.2c-178.2-76.6-488.5-168.6-695.4-208.8c-415.7-80.5-835.2-72.8-1419.5,28.7c-547.9,95.8-559.4,95.8-603.4,55.5c-47.9-42.1-47.9-80.5-1.9-239.5c224.1-783.5,821.8-1432.9,1534.5-1672.4c258.6-86.2,356.3-99.6,699.2-97.7c362.1,0,526.8,28.7,839.1,141.8c183.9,67.1,482.8,239.5,691.6,398.5c72.8,53.7,137.9,99.6,147.5,99.6c7.7,0,53.6-17.2,103.4-38.3l90-38.3l-13.4-111.1c-55.6-454-222.2-946.3-444.4-1306.5c-122.6-197.3-364-519.1-607.3-804.6c-277.8-325.7-275.9-360.2,36.4-438.7c628.3-159,1360.1-46,1902.3,289.3c189.7,118.8,444.4,350.6,578.5,530.6c197.3,260.5,365.9,653.2,432.9,1007.6c24.9,141.7,28.7,235.6,19.2,517.2c-7.6,189.6-17.2,379.3-23,421.5c-7.7,72.8-3.8,80.5,69,130.3c42.1,28.7,84.3,51.7,93.9,51.7c30.6,0,235.6-172.4,429.1-362.1c429.1-419.5,649.4-796.9,944.4-1626.4c59.4-164.8,120.7-316.1,136-333.3c65.1-72.8,126.4-44.1,289.3,128.4c258.6,272,434.9,568.9,557.5,938.7c273.9,819.9,118.8,1588.1-448.3,2237.5c-226,262.4-496.2,452.1-887,628.4c-122.6,55.5-229.9,109.2-239.5,120.7c-7.7,11.5-11.5,63.2-9.6,114.9l5.7,95.8l195.4,72.8C7917.7,743,8429.2,777.4,9264.4,633.8c551.7-95.8,559.4-95.8,603.4-55.6c51.7,46,42.1,126.4-36.4,358.2c-74.7,214.6-114.9,304.6-218.4,480.8c-306.5,517.2-766.3,900.4-1287.3,1074.7c-256.7,86.2-463.6,113-766.3,101.5c-544.1-23-917.6-159-1408-511.5l-193.5-137.9l-90,36.4l-90,38.3l1.9,95.8c3.8,132.2,72.8,461.7,143.7,678.1c147.5,457.8,390.8,848.6,906.1,1454c277.8,325.7,275.8,360.1-36.4,438.7C6505.8,4758.2,6229.9,4775.5,5911.9,4742.9z M5404.3,1681.7c308.4-80.5,544-222.2,770.1-457.8c425.3-446.4,557.5-1046,360.1-1636c-134.1-402.3-427.2-739.4-798.8-923.3c-270.1-130.3-431-170.5-714.5-172.4c-444.4-3.9-812.3,139.8-1126.4,436.7c-341,323.8-511.5,726.1-509.6,1199.2c1.9,421.4,149.4,787.3,446.4,1097.7c260.5,272,565.1,432.9,936.8,492.3C4925.4,1742.9,5237.6,1725.7,5404.3,1681.7z"/><path d="M4726.1,1208.5c-482.8-116.9-854.4-591.9-854.4-1093.9c0-191.6,28.7-314.2,118.8-503.8c182-381.2,584.3-632.2,1011.5-632.2c710.7,0,1252.9,666.7,1109.2,1364c-82.4,404.2-440.6,772-842.9,867.8C5116.9,1244.9,4875.6,1244.9,4726.1,1208.5z"/></g></g>
</svg>