<?xml version="1.0" encoding="UTF-8" standalone="no"?>
<!-- Created with Inkscape (http://www.inkscape.org/) -->

<svg
   xmlns:dc="http://purl.org/dc/elements/1.1/"
   xmlns:cc="http://creativecommons.org/ns#"
   xmlns:rdf="http://www.w3.org/1999/02/22-rdf-syntax-ns#"
   xmlns:svg="http://www.w3.org/2000/svg"
   xmlns="http://www.w3.org/2000/svg"
   xmlns:sodipodi="http://sodipodi.sourceforge.net/DTD/sodipodi-0.dtd"
   xmlns:inkscape="http://www.inkscape.org/namespaces/inkscape"
   version="1.1"
   id="svg17131"
   xml:space="preserve"
   width="800"
   height="800"
   viewBox="0 0 800 800"
   sodipodi:docname="logotype-concept-vector-svg-2.svg"
   inkscape:version="0.92.4 (5da689c313, 2019-01-14)"><metadata
     id="metadata17137"><rdf:RDF><cc:Work
         rdf:about=""><dc:format>image/svg+xml</dc:format><dc:type
           rdf:resource="http://purl.org/dc/dcmitype/StillImage" /><dc:title></dc:title></cc:Work></rdf:RDF></metadata><defs
     id="defs17135"><clipPath
       clipPathUnits="userSpaceOnUse"
       id="clipPath17147"><path
         d="M 0,600 H 600 V 0 H 0 Z"
         id="path17145"
         inkscape:connector-curvature="0" /></clipPath></defs><sodipodi:namedview
     pagecolor="#ffffff"
     bordercolor="#666666"
     borderopacity="1"
     objecttolerance="10"
     gridtolerance="10"
     guidetolerance="10"
     inkscape:pageopacity="0"
     inkscape:pageshadow="2"
     inkscape:window-width="1920"
     inkscape:window-height="1018"
     id="namedview17133"
     showgrid="false"
     inkscape:zoom="0.71558571"
     inkscape:cx="581.35593"
     inkscape:cy="301.69492"
     inkscape:window-x="-8"
     inkscape:window-y="-8"
     inkscape:window-maximized="1"
     inkscape:current-layer="g17139" /><g
     id="g17139"
     inkscape:groupmode="layer"
     inkscape:label="logotype-element-16-publicdomainvectors.org"
     transform="matrix(1.3333333,0,0,-1.3333333,0,800)"><g
       id="g17141"><g
         id="g17143"
         clip-path="url(#clipPath17147)"><path
           d="m 250.514,259.355 c 130.154,-142.314 283.163,35.994 290.227,51.2 l -46.239,27.604 c 0,0 -86.952,-193.401 -243.988,-78.804"
           style="fill:#231f20;fill-opacity:1;fill-rule:nonzero;stroke:none"
           id="path17149"
           inkscape:connector-curvature="0" /><path
           d="M 214.883,300.476 C 247.435,110.389 472.554,177.664 486.718,186.639 l -23.974,48.219 c 0,0 -177.71,-115.689 -247.861,65.618"
           style="fill:#231f20;fill-opacity:1;fill-rule:nonzero;stroke:none"
           id="path17151"
           inkscape:connector-curvature="0" /><path
           d="M 207.139,354.331 C 131.756,176.82 357.51,111.709 374.277,111.601 l 5.901,53.525 c 0,0 -212.044,-1.246 -173.039,189.205"
           style="fill:#231f20;fill-opacity:1;fill-rule:nonzero;stroke:none"
           id="path17153"
           inkscape:connector-curvature="0" /><path
           d="M 229.742,403.823 C 70.356,295.246 225.071,118.419 239.118,109.265 l 33.902,41.839 c 0,0 -179.058,113.59 -43.278,252.719"
           style="fill:#231f20;fill-opacity:1;fill-rule:nonzero;stroke:none"
           id="path17155"
           inkscape:connector-curvature="0" /><path
           d="M 275.515,433.239 C 82.73,428.069 117.285,195.667 124.151,180.371 l 51.14,16.868 c 0,0 -89.22,192.365 100.224,236"
           style="fill:#231f20;fill-opacity:1;fill-rule:nonzero;stroke:none"
           id="path17157"
           inkscape:connector-curvature="0" /><path
           d="M 329.923,433.239 C 164.948,533.118 68.371,318.928 65.878,302.348 l 52.142,-13.459 c 0,0 28.943,210.062 211.903,144.35"
           style="fill:#231f20;fill-opacity:1;fill-rule:nonzero;stroke:none"
           id="path17159"
           inkscape:connector-curvature="0" /><path
           d="M 375.696,403.823 C 290.907,577.039 93.862,449.063 82.8,436.462 l 36.587,-39.511 c 0,0 137.92,161.069 256.309,6.872"
           style="fill:#231f20;fill-opacity:1;fill-rule:nonzero;stroke:none"
           id="path17161"
           inkscape:connector-curvature="0" /><path
           d="M 398.3,354.331 C 420.619,545.889 185.665,544.76 169.546,540.14 l 9.417,-53.021 c 0,0 203.104,60.936 219.337,-132.788"
           style="fill:#231f20;fill-opacity:1;fill-rule:nonzero;stroke:none"
           id="path17163"
           inkscape:connector-curvature="0" /><path
           d="m 390.557,300.476 c 122.339,149.08 -75.925,275.157 -91.985,279.984 l -20.741,-49.695 c 0,0 203.806,-58.544 112.726,-230.289"
           style="fill:#231f20;fill-opacity:1;fill-rule:nonzero;stroke:none"
           id="path17165"
           inkscape:connector-curvature="0" /><path
           d="m 354.925,259.355 c 183.52,59.273 84.889,272.526 73.99,285.268 l -44.316,-30.591 c 0,0 139.801,-159.438 -29.674,-254.677"
           style="fill:#231f20;fill-opacity:1;fill-rule:nonzero;stroke:none"
           id="path17167"
           inkscape:connector-curvature="0" /><path
           d="m 302.719,244.025 c 186.431,-49.354 218.753,183.37 216.473,199.982 l -53.821,-1.777 c 0,0 31.41,-209.709 -162.652,-198.205"
           style="fill:#231f20;fill-opacity:1;fill-rule:nonzero;stroke:none"
           id="path17169"
           inkscape:connector-curvature="0" /></g></g></g></svg>